<?xml version="1.0" encoding="UTF-8" standalone="no"?>
<!-- Created with Inkscape (http://www.inkscape.org/) -->

<svg xmlns:dc="http://purl.org/dc/elements/1.1/" xmlns:cc="http://creativecommons.org/ns#" xmlns:rdf="http://www.w3.org/1999/02/22-rdf-syntax-ns#" xmlns:svg="http://www.w3.org/2000/svg" xmlns="http://www.w3.org/2000/svg" xmlns:sodipodi="http://sodipodi.sourceforge.net/DTD/sodipodi-0.dtd" xmlns:inkscape="http://www.inkscape.org/namespaces/inkscape" width="210mm" height="297mm" id="svg2" version="1.1" inkscape:version="0.91 r" viewBox="0 0 744.09448 1052.3622" sodipodi:docname="cover-bg.svg">
  <defs id="defs4" />
  <sodipodi:namedview id="base" pagecolor="#ffffff" bordercolor="#666666" borderopacity="1.0" inkscape:pageopacity="0.0" inkscape:pageshadow="2" inkscape:zoom="0.78680135" inkscape:cx="372.04724" inkscape:cy="526.1811" inkscape:document-units="px" inkscape:current-layer="layer1" showgrid="false" inkscape:window-width="1916" inkscape:window-height="1038" inkscape:window-x="0" inkscape:window-y="38" inkscape:window-maximized="1" showguides="false" units="mm" />
  <metadata id="metadata7">
    <rdf:RDF>
      <cc:Work rdf:about="">
        <dc:format>image/svg+xml</dc:format>
        <dc:type rdf:resource="http://purl.org/dc/dcmitype/StillImage" />
        <dc:title></dc:title>
      </cc:Work>
    </rdf:RDF>
  </metadata>
  <g inkscape:label="Layer 1" inkscape:groupmode="layer" id="layer1">
    <g id="g6995" transform="matrix(1.25,0,0,-1.25,1587.1931,1238.3117)">
      <g id="g7017" transform="translate(-153.702,155.905)" />
    </g>
    <g id="g7389" transform="matrix(1.25,0,0,-1.25,1395.0656,1043.4305)">
      <g id="g7391" transform="translate(74.253,199.054)">
        <g id="g7393">
          <g id="g7395" transform="translate(-74.253,-199.054)">
            <text transform="matrix(1,0,0,-1,74.253,199.054)" style="font-variant:normal;font-size:7.97009993px;font-family:'Nimbus Sans L';-inkscape-font-specification:NimbusSanL-Regu;writing-mode:lr-tb;fill:#000000;fill-opacity:1;fill-rule:nonzero;stroke:none" id="text7397">
              <tspan sodipodi:role="line" id="tspan7403" x="0" y="0" />
            </text>
            <g id="g7405" transform="translate(74.253,199.054)" />
          </g>
        </g>
        <g id="g7407" transform="translate(-74.253,-199.054)" />
      </g>
    </g>
    <g id="g7447" transform="matrix(1.25,0,0,-1.25,1395.0656,1043.4305)">
      <g id="g7449" transform="translate(197.306,56.184)">
        <g id="g7451" transform="translate(256.608,0)">
          <g id="g7453" transform="translate(-453.914,-56.184)">
            <text transform="matrix(1,0,0,-1,453.914,56.184)" style="font-variant:normal;font-size:7.97009993px;font-family:'Nimbus Sans L';-inkscape-font-specification:NimbusSanL-Regu;writing-mode:lr-tb;fill:#000000;fill-opacity:1;fill-rule:nonzero;stroke:none" id="text7455">
              <tspan sodipodi:role="line" id="tspan7457" x="0" y="0" />
            </text>
            <g id="g7459" transform="translate(197.306,56.184)" />
          </g>
        </g>
        <g id="g7461" transform="translate(-197.306,-56.184)" />
      </g>
    </g>
    <path sodipodi:nodetypes="cc" inkscape:connector-curvature="0" id="path4441" d="m 35.433064,178.66536 673.228336,0" style="fill:none;stroke:#192c66;stroke-width:3;stroke-linecap:butt;stroke-linejoin:miter;stroke-miterlimit:4;stroke-dasharray:none;stroke-opacity:1" />
    <path style="fill:none;stroke:#192c66;stroke-width:3;stroke-linecap:butt;stroke-linejoin:miter;stroke-miterlimit:4;stroke-dasharray:none;stroke-opacity:1" d="m 35.433064,873.69684 673.228336,0" id="path6684" inkscape:connector-curvature="0" sodipodi:nodetypes="cc" />
    <g transform="translate(-211.99324,202.8638)" id="layer1-8" inkscape:label="Layer 1">
      <path inkscape:connector-curvature="0" id="path14" d="m 326.71691,720.9157 c 13.61174,2.56013 26.75255,7.12884 36.14246,13.38314 l 0,-13.38314 -36.14246,0 z m -28.06456,0.20277 c -5.69258,-0.0273 -11.05983,0.33529 -15.79298,1.13128 l 0,5.35752 c 5.67928,-2.428 13.5792,-3.73699 22.20622,-3.746 0.33493,0 0.66624,0.007 1.00306,0.0107 10.53017,0.11125 22.05976,2.12709 31.92744,6.36072 -18.54854,-6.75769 -44.38641,-5.39876 -55.13672,1.46212 l 0,14.46105 c 0.69544,0.62536 1.4496,1.21434 2.23023,1.73959 27.51224,18.51057 67.69868,13.97418 74.83526,9.00747 -8.06808,11.89674 -55.53028,11.06652 -77.06549,-5.81643 l 0,49.82925 80,0 0,-31.97439 c -20.09023,7.29485 -57.206,4.57822 -78.70882,-6.58485 15.13704,5.63791 61.87989,10.85251 78.70882,-3.14835 l 0,-20.72572 c -1.04664,-0.97456 -2.21163,-1.88145 -3.46805,-2.66809 -14.68676,-9.19471 -39.9072,-14.59573 -60.73897,-14.69584 z m 19.65587,8.10033 c 14.7747,0.0154 33.24503,5.43906 38.08456,14.5571 8.51881,16.04832 -29.75282,17.83193 -47.61371,8.55923 9.32934,3.47509 41.40159,6.65277 44.48713,-6.29669 0.50453,-2.11987 -1.54112,-5.66425 -4.80192,-7.70545 -12.39458,-7.76013 -39.01779,-10.4023 -47.62438,-4.65315 3.20731,-2.96136 9.50488,-4.37297 16.77471,-4.45037 0.23237,-0.004 0.45951,-0.0107 0.69361,-0.0107 z m 2.23022,4.84525 0.43751,0 c 4.55321,0.048 9.5308,0.92329 13.79752,2.75347 -9.75457,-3.55309 -24.15917,-1.91424 -25.83433,2.88154 -0.44066,1.2619 1.00899,3.45016 2.95584,4.75987 11.89619,8.00418 29.27924,6.03215 32.36495,3.88474 -3.88647,5.73071 -28.91114,4.6359 -36.02508,-5.28282 -4.04174,-5.63556 3.18397,-8.98754 12.30359,-8.9968 z m -25.10871,45.4856 c 1.66965,0 2.98793,0.36478 3.95892,1.09925 0.97099,0.72205 1.46192,1.59637 1.46192,2.61473 0,0.48555 -0.17832,0.8686 -0.53355,1.15262 -0.35523,0.27236 -0.74793,0.41622 -1.1738,0.41622 -0.78173,0 -1.21782,-0.42822 -1.31253,-1.28068 -0.0472,-0.37922 -0.11061,-0.69029 -0.1814,-0.93917 -0.0713,-0.26075 -0.19586,-0.54587 -0.37349,-0.85379 -0.16581,-0.3197 -0.42471,-0.56145 -0.7683,-0.71505 -0.34359,-0.16598 -0.76044,-0.24546 -1.26985,-0.24546 -1.23151,0 -2.25753,0.56951 -3.06255,1.71825 -0.79337,1.13652 -1.18448,2.68858 -1.18448,4.64247 0,2.10746 0.44482,3.81768 1.34454,5.14408 0.91199,1.31475 2.08027,1.97439 3.4894,1.97439 0.79337,0 1.57654,-0.22237 2.35827,-0.67236 0.78174,-0.46147 1.44938,-1.09456 2.00614,-1.89968 0.37851,0.0473 0.63852,0.21601 0.76831,0.51227 -0.58021,0.95868 -1.21401,1.71637 -1.88876,2.27322 -0.66311,0.55684 -1.30404,0.92158 -1.93144,1.09925 -0.61575,0.18924 -1.31963,0.28815 -2.11284,0.28815 -2.24923,0 -4.00582,-0.72145 -5.26078,-2.16649 -1.24315,-1.44439 -1.86741,-3.3603 -1.86741,-5.7524 0,-1.25511 0.21473,-2.42416 0.62959,-3.48986 0.41423,-1.06566 0.966,-1.9469 1.66466,-2.65742 0.69883,-0.71103 1.50124,-1.26322 2.40096,-1.65421 0.912,-0.40248 1.85584,-0.60833 2.83847,-0.60833 z m 15.05669,0 c 1.66966,0 2.99923,0.36478 3.96959,1.09925 0.97099,0.72205 1.45125,1.59637 1.45125,2.61473 0,0.48555 -0.17831,0.8686 -0.53355,1.15262 -0.35507,0.27236 -0.74793,0.41622 -1.1738,0.41622 -0.78173,0 -1.21798,-0.42822 -1.31253,-1.28068 -0.0473,-0.37922 -0.11013,-0.69029 -0.1814,-0.93917 -0.0706,-0.26075 -0.19587,-0.54587 -0.37349,-0.85379 -0.16597,-0.3197 -0.41404,-0.56145 -0.75763,-0.71505 -0.34281,-0.16598 -0.77158,-0.24546 -1.28052,-0.24546 -1.23151,0 -2.24687,0.56951 -3.05188,1.71825 -0.79338,1.13652 -1.19515,2.68858 -1.19515,4.64247 0,2.10746 0.45486,3.81768 1.35521,5.14408 0.91136,1.31475 2.0696,1.97439 3.47873,1.97439 0.79337,0 1.57717,-0.22237 2.35827,-0.67236 0.78158,-0.46147 1.44938,-1.09456 2.00614,-1.89968 0.3793,0.0473 0.63804,0.21601 0.76831,0.51227 -0.58021,0.95868 -1.20333,1.71637 -1.87809,2.27322 -0.66311,0.55684 -1.31455,0.92158 -1.94211,1.09925 -0.61576,0.18924 -1.31947,0.28815 -2.11284,0.28815 -2.24986,0 -4.00598,-0.72145 -5.26078,-2.16649 -1.24315,-1.44439 -1.85674,-3.3603 -1.85674,-5.7524 0,-1.25511 0.20406,-2.42416 0.61892,-3.48986 0.41406,-1.06566 0.96584,-1.9469 1.66466,-2.65742 0.69804,-0.71103 1.50124,-1.26322 2.40096,-1.65421 0.912,-0.40248 1.85568,-0.60833 2.83847,-0.60833 z m 13.30666,0 c 1.50383,0 2.84038,0.3031 4.01227,0.90715 0.17762,0.99518 0.31191,2.23403 0.39482,3.71398 l -0.98172,0.032 c -0.17825,-0.69891 -0.42745,-1.29575 -0.74697,-1.79295 -0.30787,-0.50886 -0.63716,-0.88329 -0.9924,-1.1206 -0.34359,-0.23663 -0.65444,-0.39633 -0.93904,-0.49093 -0.27217,-0.10634 -0.52199,-0.16009 -0.74696,-0.16009 -1.90689,0 -2.85981,0.81046 -2.85981,2.44397 0,0.73448 0.17831,1.32367 0.53354,1.75027 0.36751,0.41426 1.04388,0.79736 2.03815,1.15262 0.82909,0.30791 1.53362,0.61148 2.10218,0.90715 0.56777,0.29609 1.11223,0.65298 1.63265,1.06723 0.53285,0.41495 0.92395,0.89524 1.18447,1.45144 0.26053,0.55685 0.39483,1.17943 0.39483,1.87834 0,0.68649 -0.14288,1.31146 -0.42684,1.86766 -0.27217,0.54519 -0.61018,0.98135 -1.02441,1.3127 -0.40242,0.33183 -0.86617,0.61763 -1.38722,0.84312 -0.52058,0.21272 -1.01213,0.35462 -1.46192,0.43757 -0.43814,0.0831 -0.84801,0.12807 -1.22716,0.12807 -1.18353,0 -2.2699,-0.13495 -3.27597,-0.39488 -0.16597,-0.048 -0.39835,-0.064 -0.68294,-0.064 -0.18926,0 -0.47453,0.0363 -0.85368,0.10673 0,-1.3025 -0.0795,-3.00542 -0.24543,-5.10139 l 0.98173,-0.032 c 0.22497,1.63415 0.66105,2.77426 1.31252,3.42583 0.24825,0.26057 0.60408,0.50074 1.07777,0.72572 0.47322,0.21323 1.01786,0.32017 1.62198,0.32017 0.73375,0 1.44701,-0.24986 2.13418,-0.74707 0.6864,-0.4972 1.02441,-1.15697 1.02441,-1.97438 0,-0.80526 -0.26649,-1.49191 -0.81099,-2.05977 -0.54511,-0.58092 -1.52538,-1.17614 -2.9345,-1.80363 -0.75766,-0.33182 -1.34647,-0.61827 -1.76071,-0.84311 -0.4147,-0.23663 -0.80532,-0.53055 -1.18447,-0.88581 -0.36687,-0.3553 -0.62625,-0.76568 -0.76831,-1.22732 -0.14253,-0.46165 -0.21342,-1.0321 -0.21342,-1.70758 0,-1.19594 0.48123,-2.16632 1.44058,-2.92423 0.97083,-0.75778 2.1823,-1.14194 3.63879,-1.14194 z" style="fill:#0c2f59;fill-opacity:1;fill-rule:nonzero;stroke:none" />
    </g>
    <g transform="matrix(0.45426795,0,0,-0.45426795,381.04104,107.75971)" inkscape:label="ink_ext_XXXXXX" id="g5047">
      <g transform="scale(0.1,0.1)" id="g5049">
        <path inkscape:connector-curvature="0" id="path5051" style="fill:#1d3c85;fill-opacity:1;fill-rule:nonzero;stroke:none" d="m 199.789,591.16 0,182.664 -117.8515,0 0,-182.664 -81.8945312,0 0,409.53 81.8945312,0 0,-159.092 117.8515,0 0,159.092 83.672,0 0,-409.53 -83.672,0" />
        <path inkscape:connector-curvature="0" id="path5053" style="fill:#1d3c85;fill-opacity:1;fill-rule:nonzero;stroke:none" d="m 371.879,591.16 0,409.53 233.359,0 -10.625,-67.178 -140.234,0 0,-94.864 117.266,0 0,-67.175 -116.094,0 0,-109.602 154.98,0 0,-70.711 -238.652,0" />
        <path inkscape:connector-curvature="0" id="path5055" style="fill:#1d3c85;fill-opacity:1;fill-rule:nonzero;stroke:none" d="m 669.477,591.16 86.0156,0 0,409.531 -86.0156,0 0,-409.531 z" />
        <path inkscape:connector-curvature="0" id="path5057" style="fill:#1d3c85;fill-opacity:1;fill-rule:nonzero;stroke:none" d="m 1042.47,591.16 -70.122,156.758 c -22.969,51.25 -47.715,108.992 -55.391,134.336 2.949,-33.594 3.535,-81.906 4.141,-116.086 l 2.343,-175.008 -79.531,0 0,409.53 91.328,0 78.382,-163.807 c 20.62,-43.606 36.52,-86.621 44.76,-116.074 -2.95,31.804 -5.89,84.257 -6.48,112.539 l -1.76,167.342 78.38,0 0,-409.53 -86.05,0" />
        <path inkscape:connector-curvature="0" id="path5059" style="fill:#1d3c85;fill-opacity:1;fill-rule:nonzero;stroke:none" d="m 1449.09,591.16 -255.75,0 0,57.754 150.86,249.246 c 11.2,18.86 25.34,37.129 25.34,37.129 0,0 -17.09,-2.949 -41.84,-2.949 l -126.09,0 18.26,68.35 245.12,0 0,-59.51 -152.02,-256.321 c -8.84,-14.734 -21.23,-28.875 -21.23,-28.875 0,0 24.16,2.352 40.67,2.352 l 137.89,0 -21.21,-67.176" />
        <path inkscape:connector-curvature="0" id="path5061" style="fill:#1d3c85;fill-opacity:1;fill-rule:nonzero;stroke:none" d="m 1866.29,591.16 -70.11,156.758 c -22.97,51.25 -47.72,108.992 -55.39,134.336 2.95,-33.594 3.53,-81.906 4.14,-116.086 l 2.34,-175.008 -79.53,0 0,409.53 91.33,0 78.36,-163.807 c 20.62,-43.606 36.54,-86.621 44.78,-116.074 -2.95,31.804 -5.9,84.257 -6.48,112.539 l -1.76,167.342 78.38,0 0,-409.53 -86.06,0" />
        <path inkscape:connector-curvature="0" id="path5063" style="fill:#1d3c85;fill-opacity:1;fill-rule:nonzero;stroke:none" d="m 2040.75,591.16 86.0313,0 0,409.531 -86.0313,0 0,-409.531 z" />
        <path inkscape:connector-curvature="0" id="path5065" style="fill:#1d3c85;fill-opacity:1;fill-rule:nonzero;stroke:none" d="m 2340.69,735.523 -73.09,-144.363 -102.52,0 118.6,219.207 -100.92,190.323 100.76,0 57.17,-110.194 0,-154.973" />
        <path inkscape:connector-curvature="0" id="path5067" style="fill:#1d3c85;fill-opacity:1;fill-rule:nonzero;stroke:none" d="m 2453.81,590.563 -75.43,144.386 0,154.961 56,110.2 98.4,0 -96.78,-185.036 117.4,-224.511 -99.59,0" />
        <path inkscape:connector-curvature="0" id="path5069" style="fill:#1d3c85;fill-opacity:1;fill-rule:nonzero;stroke:none" d="m 2777.92,901.695 c -13.56,22.395 -32.39,34.18 -64.81,34.18 l -37.71,0 0,-277.539 44.18,0 c 54.21,0 78.96,41.828 78.96,128.457 0,47.734 -4.12,87.793 -20.62,114.902 z m 71.89,-249.246 c -24.75,-33.594 -61.27,-55.988 -99.59,-58.918 -15.31,-1.199 -34.75,-2.371 -58.91,-2.371 l -99.59,0 0,409.53 82.5,0 c 23.58,0 54.81,-1.182 71.31,-2.354 34.75,-2.938 64.81,-15.918 89.55,-40.652 37.72,-37.129 55.98,-89.563 55.98,-163.223 0,-55.988 -13.56,-104.895 -41.25,-142.012" />
        <path inkscape:connector-curvature="0" id="path5071" style="fill:#1d3c85;fill-opacity:1;fill-rule:nonzero;stroke:none" d="m 3192.19,890.496 c -6.48,20.633 -28.26,51.863 -71.87,51.863 -27.7,0 -51.86,-14.148 -63.65,-35.945 -14.15,-26.523 -20.63,-62.461 -20.63,-111.953 0,-70.723 11.8,-114.902 36.54,-132.59 12.97,-9.422 29.48,-14.141 48.91,-14.141 57.15,0 81.31,43.606 81.31,147.903 0,41.844 -3.54,71.883 -10.61,94.863 z m 14.14,-286.965 c -24.74,-13.535 -47.71,-18.855 -81.89,-18.855 -61.88,0 -101.95,17.09 -133.17,57.754 -31.23,40.066 -47.14,91.914 -47.14,152.031 0,88.379 33.59,159.09 92.5,191.504 24.18,12.957 54.21,20.025 84.86,20.025 109.02,0 176.19,-79.549 176.19,-207.994 0,-92.531 -31.82,-162.051 -91.35,-194.465" />
        <path inkscape:connector-curvature="0" id="path5073" style="fill:#1d3c85;fill-opacity:1;fill-rule:nonzero;stroke:none" d="m 3525.14,928.805 c -9.43,3.535 -26.5,5.89 -46.54,5.89 l -29.47,0 0,-110.773 27.69,0 c 35.37,0 50.68,3.535 61.88,13.555 10.02,9.425 15.89,24.152 15.89,41.242 0,25.34 -10,43.015 -29.45,50.086 z m 43.01,-337.645 c -15.9,27.11 -22.38,38.309 -38.3,67.176 -40.67,73.652 -53.03,93.691 -67.76,100.176 -4.12,1.769 -7.65,2.941 -12.96,3.535 l 0,-170.887 -80.73,0 0,409.53 152.62,0 c 72.48,0 120.22,-48.319 120.22,-120.206 0,-61.277 -40.67,-111.961 -91.35,-113.132 8.24,-6.485 11.79,-10.02 17.09,-17.09 23.57,-29.453 98.4,-159.102 98.4,-159.102 l -97.23,0" />
        <path inkscape:connector-curvature="0" id="path5075" style="fill:#1d3c85;fill-opacity:1;fill-rule:nonzero;stroke:none" d="m 3931.16,934.109 -130.22,0 0,-93.691 104.3,0 0,-67.18 -104.3,0 0,-182.078 -82.5,0 0,409.53 222.15,0 -9.43,-66.581" />
        <path inkscape:connector-curvature="0" id="path5077" style="fill:#1d3c85;fill-opacity:1;fill-rule:nonzero;stroke:none" d="m 4112.58,590.973 86.8984,0 0,413.594 -86.8984,0 0,-413.594 z" />
        <path inkscape:connector-curvature="0" id="path5079" style="fill:#1d3c85;fill-opacity:1;fill-rule:nonzero;stroke:none" d="m 4489.26,590.973 -70.82,158.3 c -23.2,51.778 -48.2,110.098 -55.94,135.684 2.97,-33.926 3.58,-82.715 4.17,-117.234 l 2.38,-176.75 -80.33,0 0,413.597 92.24,0 79.14,-165.433 c 20.82,-44.043 36.9,-87.481 45.24,-117.246 -2.99,32.148 -5.96,85.109 -6.57,113.672 l -1.77,169.007 79.14,0 0,-413.597 -86.88,0" />
        <path inkscape:connector-curvature="0" id="path5081" style="fill:#1d3c85;fill-opacity:1;fill-rule:nonzero;stroke:none" d="m 4772.6,584.703 c -47.01,0 -99.37,13.262 -141.03,36.32 l 30.95,62.84 c 38.68,-19.605 72,-32.285 113.66,-32.285 47.61,0 72.59,19.024 72.59,54.762 0,25.941 -17.24,42.082 -54.14,51.879 l -45.84,12.109 c -41.05,10.953 -66.64,26.524 -81.52,50.735 -11.31,17.871 -17.25,38.625 -17.25,61.101 0,73.219 60.69,123.946 148.17,123.946 50.58,0 101.78,-14.985 138.06,-40.356 l -39.27,-57.652 c -37.48,21.91 -65.45,30.558 -96.41,30.558 -33.9,0 -57.71,-19.023 -57.71,-46.113 0,-20.754 11.31,-31.133 45.82,-40.348 l 49.98,-13.265 c 67.85,-17.871 104.74,-59.957 104.74,-119.329 0,-81.285 -67.85,-134.902 -170.8,-134.902" />
        <path inkscape:connector-curvature="0" id="path5083" style="fill:#1d3c85;fill-opacity:1;fill-rule:nonzero;stroke:none" d="m 5261.61,935.543 -98.77,0 0,-344.57 -84.51,0 0,344.57 -101.18,0 0,69.027 298.15,0 -13.69,-69.027" />
        <path inkscape:connector-curvature="0" id="path5085" style="fill:#1d3c85;fill-opacity:1;fill-rule:nonzero;stroke:none" d="m 5310.96,590.973 86.8984,0 0,413.594 -86.8984,0 0,-413.594 z" />
        <path inkscape:connector-curvature="0" id="path5087" style="fill:#1d3c85;fill-opacity:1;fill-rule:nonzero;stroke:none" d="m 5735.84,935.543 -98.78,0 0,-344.57 -84.52,0 0,344.57 -101.15,0 0,69.027 298.15,0 -13.7,-69.027" />
        <path inkscape:connector-curvature="0" id="path5089" style="fill:#1d3c85;fill-opacity:1;fill-rule:nonzero;stroke:none" d="m 6075,661.199 c -10.7,-32.726 -51.17,-77.961 -140.42,-77.961 -63.09,0 -109.52,19.043 -132.72,55.352 -13.69,21.426 -17.85,38.086 -17.85,77.949 l 0,288.031 85.1,0 0,-271.957 c 0,-25.586 2.38,-40.468 7.14,-49.394 9.52,-18.457 29.17,-28.563 56.53,-28.563 36.31,0 59.51,17.852 63.08,48.192 1.2,8.937 1.2,14.882 1.2,36.906 l 0,264.816 84.49,0 0,-278.5 c 0,-39.277 -0.59,-47.011 -6.55,-64.871" />
        <path inkscape:connector-curvature="0" id="path5091" style="fill:#1d3c85;fill-opacity:1;fill-rule:nonzero;stroke:none" d="m 6418.34,935.543 -98.78,0 0,-344.57 -84.52,0 0,344.57 -101.15,0 0,69.027 298.15,0 -13.7,-69.027" />
        <path inkscape:connector-curvature="0" id="path5093" style="fill:#c8c7c7;fill-opacity:1;fill-rule:nonzero;stroke:none" d="M 237.672,31.8477 C 212.898,10.6172 180.465,0.589844 131.52,0.589844 69.0039,0.589844 33.6172,18.8672 11.7969,58.9766 1.17969,78.4375 0,104.387 0,122.082 l 0,290.156 47.7734,0 0,-272.461 c 0,-20.058 1.7657,-46.0075 7.0743,-58.3903 7.6679,-17.6953 29.4882,-39.5078 79.0313,-39.5078 33.609,0 58.973,8.8438 71.355,25.3477 13.567,18.2929 15.332,35.9764 15.332,63.1094 l 0,281.902 47.774,0 0,-287.804 c 0,-48.9457 -6.488,-71.9418 -30.668,-92.5863" />
        <path inkscape:connector-curvature="0" id="path5095" style="fill:#c8c7c7;fill-opacity:1;fill-rule:nonzero;stroke:none" d="M 595.637,7.66797 465.891,255.363 c -25.95,48.946 -46.004,97.313 -46.004,97.313 0,0 4.722,-57.801 5.308,-110.293 l 2.364,-234.71503 -50.133,0 0,404.57003 56.027,0 134.469,-258.312 c 20.047,-38.336 35.969,-80.7971 37.742,-84.9182 0,1.168 -4.723,65.4572 -5.309,123.2502 l -1.769,219.98 47.766,0 0,-404.57003 -50.715,0" />
        <path inkscape:connector-curvature="0" id="path5097" style="fill:#c8c7c7;fill-opacity:1;fill-rule:nonzero;stroke:none" d="m 758.391,7.66797 47.1797,0 0,404.57 -47.1797,0 0,-404.57 z" />
        <path inkscape:connector-curvature="0" id="path5099" style="fill:#c8c7c7;fill-opacity:1;fill-rule:nonzero;stroke:none" d="m 1054.43,7.66797 -47.77,0 -136.23,404.57003 52.484,0 85.516,-260.675 c 11.79,-35.379 21.82,-78.4341 23.59,-90.2232 2.36,10.0196 10.62,40.6832 24.77,84.3242 l 86.69,266.574 49.54,0 L 1054.43,7.66797" />
        <path inkscape:connector-curvature="0" id="path5101" style="fill:#c8c7c7;fill-opacity:1;fill-rule:nonzero;stroke:none" d="m 1257.88,7.66797 0,404.57003 221.16,0 -6.49,-40.105 -165.72,0 0,-132.688 138.59,0 0,-41.875 -138.59,0 0,-148.027 178.11,0 0,-41.87503 -227.06,0" />
        <path inkscape:connector-curvature="0" id="path5103" style="fill:#c8c7c7;fill-opacity:1;fill-rule:nonzero;stroke:none" d="m 1710.8,363.293 c -12.98,5.301 -28.9,8.254 -50.72,8.254 l -46.59,0 0,-150.981 43.05,0 c 35.97,0 57.8,6.485 73.13,20.649 13.56,12.379 20.64,34.195 20.64,60.738 0,26.535 -16.52,51.895 -39.51,61.34 z M 1760.92,7.66797 c -11.79,26.54293 -49.53,88.46483 -103.2,156.87503 -15.92,20.047 -24.77,25.359 -44.82,25.945 l 0,-182.82003 -48.36,0 0,404.57003 94.36,0 c 55.44,0 82.56,-10.027 102.02,-25.945 18.29,-14.746 40.11,-41.879 40.11,-84.926 0,-66.648 -43.06,-110.879 -107.34,-110.879 l -5.9,0 c 18.88,-15.332 32.44,-34.207 40.7,-45.41 17.1,-22.996 93.18,-137.41003 93.18,-137.41003 l -60.75,0" />
        <path inkscape:connector-curvature="0" id="path5105" style="fill:#c8c7c7;fill-opacity:1;fill-rule:nonzero;stroke:none" d="M 2089.4,24.6836 C 2062.87,7.65234 2035.74,0.0195313 1998.58,0.0195313 c -48.36,0 -89.64,11.7460687 -129.74,36.4140687 l 21.23,37.5859 c 33.62,-24.0781 67.82,-34.6523 108.51,-34.6523 30.67,0 47.18,4.7031 64.29,17.625 19.46,14.6836 28.89,34.0586 28.89,57.5548 0,35.836 -23.59,60.5 -72.54,75.187 l -40.69,12.332 c -36.56,11.164 -56.03,19.379 -71.95,35.825 -16.51,17.629 -25.36,39.949 -25.36,65.793 0,68.718 52.49,115.707 130.93,115.707 43.64,0 83.74,-12.926 122.08,-38.77 l -21.24,-34.648 c -38.92,25.254 -63.69,34.07 -98.48,34.07 -50.72,0 -80.8,-25.266 -80.8,-66.371 0,-32.313 19.46,-50.52 67.23,-65.789 l 46.59,-14.688 c 35.98,-11.156 54.85,-21.73 71.36,-40.523 16.52,-18.793 26.54,-45.809 26.54,-71.074 0,-37.5863 -20.05,-74.0003 -56.03,-96.9144" />
        <path inkscape:connector-curvature="0" id="path5107" style="fill:#c8c7c7;fill-opacity:1;fill-rule:nonzero;stroke:none" d="m 2233.88,7.66797 47.1797,0 0,404.57 -47.1797,0 0,-404.57 z" />
        <path inkscape:connector-curvature="0" id="path5109" style="fill:#c8c7c7;fill-opacity:1;fill-rule:nonzero;stroke:none" d="m 2616.61,371.547 -109.69,0 0,-363.87903 -46.59,0 0,363.87903 -108.51,0 0,40.691 267.74,0 -2.95,-40.691" />
        <path inkscape:connector-curvature="0" id="path5111" style="fill:#c8c7c7;fill-opacity:1;fill-rule:nonzero;stroke:none" d="m 2824.19,437.004 c -17.1,0 -30.66,14.16 -30.66,31.258 0,16.515 13.56,30.078 30.07,30.078 17.11,0 30.67,-13.563 30.67,-30.078 0,-17.098 -12.97,-31.258 -30.08,-31.258 z m -63.69,-67.227 -63.69,-198.156 125.62,0 -61.93,198.156 z m -58.39,67.227 c -17.1,0 -30.66,14.16 -30.66,31.258 0,16.515 13.56,30.078 30.08,30.078 17.1,0 30.66,-13.563 30.66,-30.078 0,-17.098 -12.97,-31.258 -30.08,-31.258 z M 2873.14,7.66797 2834.81,132.102 l -150.98,0 -38.92,-124.43403 -48.95,0 135.06,404.57003 63.1,0 133.87,-404.57003 -54.85,0" />
        <path inkscape:connector-curvature="0" id="path5113" style="fill:#c8c7c7;fill-opacity:1;fill-rule:nonzero;stroke:none" d="m 3175.09,371.547 -109.7,0 0,-363.87903 -46.59,0 0,363.87903 -108.51,0 0,40.691 267.75,0 -2.95,-40.691" />
        <path inkscape:connector-curvature="0" id="path5115" style="fill:#c8c7c7;fill-opacity:1;fill-rule:nonzero;stroke:none" d="m 3583.16,351.496 c -16.51,14.149 -38.33,20.051 -76.67,20.051 l -51.3,0 0,-163.363 67.82,0 c 34.21,0 49.54,6.488 63.1,21.82 14.15,15.926 20.65,34.207 20.65,57.207 0,30.074 -7.08,50.125 -23.6,64.285 z m 40.7,-150.976 c -27.13,-24.18 -56.61,-31.848 -97.9,-31.848 l -70.77,0 0,-161.00403 -47.18,0 0,404.57003 112.05,0 c 43.64,0 66.64,-4.718 88.47,-18.879 34.2,-22.398 51.89,-56.023 51.89,-96.718 0,-41.278 -10.02,-71.942 -36.56,-96.121" />
        <path inkscape:connector-curvature="0" id="path5117" style="fill:#c8c7c7;fill-opacity:1;fill-rule:nonzero;stroke:none" d="m 3822,369.777 -63.69,-198.156 125.62,0 L 3822,369.777 Z M 3934.64,7.66797 3896.31,132.102 l -150.98,0 -38.92,-124.43403 -48.95,0 135.05,404.57003 63.11,0 133.87,-404.57003 -54.85,0" />
        <path inkscape:connector-curvature="0" id="path5119" style="fill:#c8c7c7;fill-opacity:1;fill-rule:nonzero;stroke:none" d="m 4243.07,335.566 c -26.55,31.262 -52.49,37.161 -94.95,37.161 l -48.36,0 0,-324.9536 48.36,0 c 41.87,0 80.8,4.7188 102.61,42.461 18.28,31.2496 27.13,70.7736 27.13,113.2346 0,60.742 -7.66,99.668 -34.79,132.097 z M 4284.35,58.3906 C 4248.96,18.8672 4213.58,7.66797 4156.96,7.66797 l -105.56,0 0,404.57003 80.8,0 c 61.92,0 90.22,-2.949 129.74,-31.261 46,-33.028 68.41,-92.586 68.41,-171.61 0,-70.773 -18.88,-120.8982 -46,-150.9764" />
        <path inkscape:connector-curvature="0" id="path5121" style="fill:#c8c7c7;fill-opacity:1;fill-rule:nonzero;stroke:none" d="m 4424.7,7.66797 0,404.57003 221.16,0 -6.49,-40.105 -165.72,0 0,-132.688 138.59,0 0,-41.875 -138.59,0 0,-148.027 178.1,0 0,-41.87503 -227.05,0" />
        <path inkscape:connector-curvature="0" id="path5123" style="fill:#c8c7c7;fill-opacity:1;fill-rule:nonzero;stroke:none" d="m 4877.61,363.293 c -12.98,5.301 -28.9,8.254 -50.73,8.254 l -46.58,0 0,-150.981 43.05,0 c 35.98,0 57.79,6.485 73.12,20.649 13.57,12.379 20.65,34.195 20.65,60.738 0,26.535 -16.51,51.895 -39.51,61.34 z M 4927.73,7.66797 c -11.79,26.54293 -49.54,88.46483 -103.2,156.87503 -15.93,20.047 -24.77,25.359 -44.82,25.945 l 0,-182.82003 -48.36,0 0,404.57003 94.36,0 c 55.43,0 82.56,-10.027 102.02,-25.945 18.29,-14.746 40.11,-41.879 40.11,-84.926 0,-66.648 -43.05,-110.879 -107.33,-110.879 l -5.9,0 c 18.87,-15.332 32.43,-34.207 40.69,-45.41 17.1,-22.996 93.18,-137.41003 93.18,-137.41003 l -60.75,0" />
        <path inkscape:connector-curvature="0" id="path5125" style="fill:#c8c7c7;fill-opacity:1;fill-rule:nonzero;stroke:none" d="m 5224.37,194.023 c -11.21,2.364 -27.12,4.133 -47.18,4.133 l -71.36,0 0,-150.9763 86.1,0 c 59.56,0 81.39,27.1289 81.39,75.4883 0,35.391 -20.05,65.469 -48.95,71.355 z m -17.1,173.985 c -11.21,2.953 -23.59,3.539 -44.23,3.539 l -57.21,0 0,-133.285 70.18,0 c 43.64,0 58.98,7.668 70.77,34.797 4.13,9.433 6.49,20.046 6.49,31.25 0,31.855 -18.28,56.621 -46,63.699 z M 5260.94,19.4648 C 5239.11,11.2031 5223.78,7.66797 5163.62,7.66797 l -104.38,0 0,404.57003 58.39,0 c 80.2,0 99.66,-1.769 120.3,-8.847 41.29,-14.153 69,-51.309 69,-92.59 0,-41.875 -26.53,-73.719 -72.54,-88.465 24.78,-4.719 39.52,-10.617 53.08,-21.231 26.54,-20.05 36.56,-53.078 36.56,-82.57 0,-44.2264 -23.58,-83.7381 -63.09,-99.0702" />
        <path inkscape:connector-curvature="0" id="path5127" style="fill:#c8c7c7;fill-opacity:1;fill-rule:nonzero;stroke:none" d="m 5651.92,324.953 c -14.16,30.078 -43.64,55.438 -90.23,55.438 -37.74,0 -71.36,-18.282 -86.69,-47.176 -14.16,-26.543 -20.64,-61.336 -20.64,-111.465 0,-60.742 10.02,-113.828 25.94,-140.957 15.33,-25.9492 53.08,-43.6328 86.11,-43.6328 33.02,0 57.2,11.7851 75.48,34.7929 20.05,25.3516 29.5,57.7929 29.5,124.4339 0,59.562 -5.9,100.254 -19.47,128.566 z M 5666.67,38.9258 C 5636.59,11.7969 5605.92,0 5564.05,0 c -49.54,0 -87.88,20.0508 -115.01,51.3086 -31.84,36.5625 -48.36,91.4064 -48.36,160.4104 0,128.566 61.34,207.597 161.01,207.597 70.19,0 107.93,-37.156 127.38,-66.054 25.36,-37.742 36.57,-84.922 36.57,-149.793 0,-77.852 -17.69,-126.7971 -58.97,-164.5432" />
        <path inkscape:connector-curvature="0" id="path5129" style="fill:#c8c7c7;fill-opacity:1;fill-rule:nonzero;stroke:none" d="m 5966.25,363.293 c -12.98,5.301 -28.9,8.254 -50.72,8.254 l -46.58,0 0,-150.981 43.04,0 c 35.98,0 57.8,6.485 73.13,20.649 13.56,12.379 20.64,34.195 20.64,60.738 0,26.535 -16.51,51.895 -39.51,61.34 z M 6016.38,7.66797 c -11.8,26.54293 -49.54,88.46483 -103.21,156.87503 -15.92,20.047 -24.77,25.359 -44.82,25.945 l 0,-182.82003 -48.36,0 0,404.57003 94.37,0 c 55.43,0 82.55,-10.027 102.02,-25.945 18.28,-14.746 40.1,-41.879 40.1,-84.926 0,-66.648 -43.05,-110.879 -107.33,-110.879 l -5.9,0 c 18.87,-15.332 32.43,-34.207 40.7,-45.41 17.09,-22.996 93.17,-137.41003 93.17,-137.41003 l -60.74,0" />
        <path inkscape:connector-curvature="0" id="path5131" style="fill:#c8c7c7;fill-opacity:1;fill-rule:nonzero;stroke:none" d="M 6366.09,7.66797 6236.35,255.363 c -25.95,48.946 -46.01,97.313 -46.01,97.313 0,0 4.72,-57.801 5.31,-110.293 l 2.36,-234.71503 -50.13,0 0,404.57003 56.03,0 134.46,-258.312 c 20.06,-38.336 35.98,-80.7971 37.74,-84.9182 0,1.168 -4.71,65.4572 -5.3,123.2502 l -1.77,219.98 47.77,0 0,-404.57003 -50.72,0" />
      </g>
    </g>
  </g>
</svg>
